<svg xmlns="http://www.w3.org/2000/svg" width="270" height="24" viewBox="15 0 240 240"><path d="M195.471,0H123.54a22.738,22.738,0,0,0-22.748,22.726v77.645A22.737,22.737,0,0,0,123.54,123.1h71.932a22.736,22.736,0,0,0,22.748-22.724V22.726A22.738,22.738,0,0,0,195.471,0ZM183.465,71.543l16.324,48.134L160.821,89.429l-37.65,29.985L138.179,72.6l-34.755-26.3H146.6l13.69-42.873,14.481,42.873h40.546L183.465,71.543ZM475.007,123.41A26.529,26.529,0,0,1,448.465,96.9V29.016A26.529,26.529,0,0,1,475.007,2.5h65.616V35.029h-57.14V46.691h57.14v32.53h-57.14V90.883h57.14v32.53ZM328.618,29.016A26.527,26.527,0,0,0,302.078,2.5H229.7V123.413h35.021V35.027H293.6v88.385h35.02l0-94.4Zm-302.078,94.4A26.527,26.527,0,0,1,0,96.9V29.012A26.529,26.529,0,0,1,26.541,2.5h64.39V35.027H35.021V90.883H90.932v32.53ZM327.1,2.5h36.251l23.961,73.655L411.892,2.5h36.249l-40.55,120.916h-40.55ZM734.995,123.41A26.528,26.528,0,0,0,761.536,96.9V73.207a26.528,26.528,0,0,0-26.542-26.513l-36.74,0V35.029H757.24V2.5h-67.46A26.528,26.528,0,0,0,663.24,29.015V52.7a26.529,26.529,0,0,0,26.539,26.515h37.356V90.882h-63.9v32.531l71.76,0Zm129.16,0-65.616,0A26.528,26.528,0,0,1,772,96.9V29.016A26.528,26.528,0,0,1,798.539,2.5h65.616V35.029H807.017V46.691h57.138v32.53H807.017V90.883h57.138ZM633.777,77.51A26.528,26.528,0,0,0,650.928,52.7V29.016A26.528,26.528,0,0,0,624.388,2.5H553.242V123.413h35.02V54.669L619.6,123.413h35.635ZM617.134,46.6H588.256V34.939h28.878ZM893.5,7.883a11.981,11.981,0,0,0-16.892,0,11.487,11.487,0,0,0-3.5,8.43,11.6,11.6,0,0,0,3.472,8.479,11.944,11.944,0,0,0,16.925,0,11.57,11.57,0,0,0,3.5-8.479,11.442,11.442,0,0,0-3.5-8.43Zm-1.188,15.753a10.268,10.268,0,0,1-14.563,0,10.049,10.049,0,0,1-2.983-7.323,9.932,9.932,0,0,1,3-7.275,10.252,10.252,0,0,1,14.548,0,9.932,9.932,0,0,1,3,7.275A10.023,10.023,0,0,1,892.311,23.637Z" data-name="Path 3123"/><path d="M710.32,20.687a2.088,2.088,0,0,1-.113-.684q-.033-.487-.034-.976v-.96a3.6,3.6,0,0,0-.714-2.035,3.2,3.2,0,0,0-2.267-1.285,5.029,5.029,0,0,0,1.908-.635,2.859,2.859,0,0,0,1.286-2.587,3.252,3.252,0,0,0-2.038-3.32,10.032,10.032,0,0,0-3.583-.471h-4.594V20.852h2.313V15.677h1.824a5.561,5.561,0,0,1,2.573.422c.827.489,1.237,1.492,1.237,3.011v1.042l.049.424c.013.053.023.1.034.146l.031.131H710.4l-.081-.165Zm-3.55-6.928a6.244,6.244,0,0,1-2.2.293h-2.084V9.3h1.971a5.979,5.979,0,0,1,2.792.488,2,2,0,0,1,.871,1.921A2.015,2.015,0,0,1,706.769,13.759Z" data-name="Path 3124" transform="translate(180.037 1.989)"/></svg>